# xmcd
#
# Track frame offsets:
#	150
#	14628
#	27540
#	41554
#	56468
#	71024
#	85101
#	97327
#	110479
#	123263
#	137047
#	147642
#	163944
#	174873
#	188602
#	200694
#	213713
#	225025
#	239626
#	251433
#
# Disc length: 3517 seconds
#
# Revision: 0
# Processed by: cddbd v1.5.2PL0 Copyright (c) Steve Scherf et al.
# Submitted via: EasyCDDAExtractor 2010.6.0.0
#
DISCID=260dbb14
DTITLE=Kemp Wayne - Past Present Future
DYEAR=1900
DGENRE=
TTITLE0=Waiting For The Tables To Turn
TTITLE1=Fireman
TTITLE2=Leavin's Been Comin' (For A Long Long Time)
TTITLE3=Alcohall Of Fame
TTITLE4=I've Always Wanted To
TTITLE5=I'm Gonna Get A Whippin' (When I Get Home)
TTITLE6=Daddy's Living Off The Memories Of Mama
TTITLE7=Love Comes Here To Die
TTITLE8=Who'll Turn Out The Lights (In Your World Tonight)
TTITLE9=Reverend Luther
TTITLE10=She Means The Same Thing To Me She Means To You
TTITLE11=Yellow Pages
TTITLE12=Award To An Angel
TTITLE13=You Can't Have Your Way With A Memory
TTITLE14=Number On The Bathroom Wall
TTITLE15=Today We Laid Our Love To Rest
TTITLE16=From Housewife To Everyone's Girl
TTITLE17=Don't Send Me No Angels
TTITLE18=Haven't You Heard
TTITLE19=Who Left The Door To Heaven Open
EXTD=
EXTT0=
EXTT1=
EXTT2=
EXTT3=
EXTT4=
EXTT5=
EXTT6=
EXTT7=
EXTT8=
EXTT9=
EXTT10=
EXTT11=
EXTT12=
EXTT13=
EXTT14=
EXTT15=
EXTT16=
EXTT17=
EXTT18=
EXTT19=
PLAYORDER=
